HIERARCHY
ROOT pelvis
{
  OFFSET 0 100 0
  CHANNELS 6 Xposition Yposition Zposition Zrotation Xrotation Yrotation
  JOINT pelvis_right_femur
  {
    OFFSET -10.78128 -3.44521 -0.5502486
    CHANNELS 3 Zrotation Xrotation Yrotation
    JOINT right_femur_tibia
    {
      OFFSET -0.8047443 -44.0398 -0.1307829
      CHANNELS 3 Zrotation Xrotation Yrotation
      JOINT right_tibia_foot
      {
        OFFSET 3.006224 -47.83518 -5
        CHANNELS 3 Zrotation Xrotation Yrotation
        End Site
        {
          OFFSET 0 -5 15
        }
      }
    }
  }
  JOINT pelvis_left_femur
  {
    OFFSET 10.78128 -3.44521 -0.5502486
    CHANNELS 3 Zrotation Xrotation Yrotation
    JOINT left_femur_tibia
    {
      OFFSET 0.8047443 -44.0398 -0.1307829
      CHANNELS 3 Zrotation Xrotation Yrotation
      JOINT left_tibia_foot
      {
        OFFSET -4.370144 -48.10324 -4.275266
        CHANNELS 3 Zrotation Xrotation Yrotation
        End Site
        {
          OFFSET 0 -5 15
        }
      }
    }
  }
  JOINT pelvis_spine1
  {
    OFFSET 0 6.468898 -3.129235
    CHANNELS 3 Zrotation Xrotation Yrotation
    JOINT spine1
    {
      OFFSET 0 23.15396 4.99043
      CHANNELS 3 Zrotation Xrotation Yrotation
      JOINT spine2
      {
        OFFSET 0 20.79997 -5.064912
        CHANNELS 3 Zrotation Xrotation Yrotation
        JOINT neck
        {
          OFFSET 0 14.38658 9.616178
          CHANNELS 3 Zrotation Xrotation Yrotation
          End Site
          {
            OFFSET 0 20 0
          }
        }
      }
      JOINT right_manubrium
      {
        OFFSET -5.722621 16.35077 3.967754
        CHANNELS 3 Zrotation Xrotation Yrotation
        JOINT right_clavicle
        {
          OFFSET -13.16364 1.694482 -4.693211
          CHANNELS 3 Zrotation Xrotation Yrotation
          JOINT right_humerus
          {
            OFFSET -28.5034 -0.3100689 -2.792744
            CHANNELS 3 Zrotation Xrotation Yrotation
            JOINT right_radius
            {
              OFFSET -25.15693 0.02248979 -1.271978
              CHANNELS 3 Zrotation Xrotation Yrotation
              End Site
              {
                OFFSET -15 0 0
              }
            }
          }
        }
      }
      JOINT left_manubrium
      {
        OFFSET 5.722621 16.35077 3.967754
        CHANNELS 3 Zrotation Xrotation Yrotation
        JOINT left_clavicle
        {
          OFFSET 13.16364 1.694482 -4.693211
          CHANNELS 3 Zrotation Xrotation Yrotation
          JOINT left_humerus
          {
            OFFSET 29.39168 -1.063119 -2.237045
            CHANNELS 3 Zrotation Xrotation Yrotation
            JOINT left_radius
            {
              OFFSET 24.59957 -0.9528479 0.9047498
              CHANNELS 3 Zrotation Xrotation Yrotation
              End Site
              {
                OFFSET 15 -0 -0
              }
            }
          }
        }
      }
    }
  }
}
MOTION
Frames: 17
Frame Time: 0.0416666666667
-1270.668 100.3378 2564.926 -4.584677 -3.919588 -60.12292 1.258186 -25.46886 -4.135753 -0 8.074549 -0 -6.18083 2.116786 -4.364245 -5.364012 16.58609 -7.329744 -0 17.57285 -0 0.330106 -18.60756 13.26076 -1.672904 0.398206 4.814433 0.1733165 8.002446 -3.063738 3.093952 25.18151 3.596874 -0.3485183 -20.70551 8.538529 -3.613442 -20.58825 9.292936 89.59591 17.02138 -9.727086 -0 0 14.76754 -18.36175 4.084586 12.29859 3.403053 -15.3615 -3.030595 -94.07981 26.4864 22.43363 0 0 -6.892639 -1.012887 10.37264 14.51677
-1276.667 99.4845 2568.07 -4.510818 -3.71059 -59.90333 2.348402 -24.6118 -3.732925 -0 6.738814 -0 -6.831376 3.446753 -4.330305 -5.111381 17.32854 -6.90788 -0 23.342 -0 -0.004614256 -17.03931 12.89744 -1.682258 0.3921781 4.567711 0.3462526 7.927147 -3.303429 3.065937 25.30095 3.671118 -0.3911165 -21.00112 8.653065 -3.777848 -20.29068 9.246465 90.2661 17.06159 -10.62291 -0 0 13.64712 -18.00313 3.928134 11.98309 3.426653 -15.82509 -3.096157 -93.48773 26.73053 21.48889 0 0 -7.966963 -0.6297074 10.55701 14.27592
-1282.966 99.1862 2571.246 -4.880539 -3.449119 -59.87562 3.803074 -22.39065 -2.48716 -0 8.20871 -0 -7.530788 4.062896 -4.488109 -4.583004 16.91754 -6.662479 -0 31.07307 -0 -0.5956405 -14.37037 12.86455 -1.658994 0.3174092 4.458338 0.4866929 7.945108 -3.485635 3.026558 25.31162 3.704236 -0.4729329 -21.40765 8.736736 -4.008291 -20.32056 9.221252 90.80325 16.91197 -11.21828 -0 0 13.04366 -17.77739 3.79134 11.86994 3.390548 -16.15126 -3.147681 -93.23484 26.82395 21.21597 0 0 -8.726811 -0.4020787 10.60564 14.21389
-1289.352 99.52017 2574.379 -5.612588 -3.240622 -60.15715 5.224497 -18.96408 -0.7709274 -0 11.12222 -0 -8.039939 3.431208 -4.788686 -3.912669 14.92677 -6.534067 -0 40.0563 -0 -1.306257 -11.10463 13.21083 -1.593537 0.1653119 4.496091 0.5945921 8.070775 -3.612788 2.978411 25.19998 3.688936 -0.6072963 -21.94581 8.794495 -4.321442 -20.7118 9.213249 91.22061 16.53548 -11.51391 -0 0 13.00134 -17.67245 3.675814 11.96533 3.287241 -16.32936 -3.184943 -93.36372 26.77902 21.68712 0 0 -9.152046 -0.3625402 10.49285 14.37596
-1295.585 100.3987 2577.398 -6.538761 -3.265683 -60.80378 6.166842 -14.58477 0.8196463 -0 13.78383 -0 -8.276789 1.610929 -5.046667 -3.302176 11.21125 -6.437568 -0 48.89431 -0 -1.967732 -8.068752 13.91073 -1.478688 -0.07407373 4.683131 0.678044 8.310241 -3.696658 2.92366 24.94932 3.617454 -0.8119567 -22.63499 8.833345 -4.734847 -21.48526 9.215651 91.54077 15.91326 -11.53015 -0 0 13.53971 -17.66783 3.603832 12.26823 3.10984 -16.36174 -3.208389 -93.87136 26.59382 22.92293 0 0 -9.289114 -0.5238597 10.19738 14.7878
-1301.483 101.587 2580.248 -7.494173 -3.626223 -61.75503 6.46263 -9.617344 1.817829 -0 15.08977 -0 -8.365272 -0.829292 -5.047745 -2.828614 6.08298 -6.305028 -0 55.68894 -0 -2.478103 -6.007154 14.85373 -1.31179 -0.4061335 5.01278 0.7487634 8.658499 -3.752529 2.86505 24.54473 3.482984 -1.102269 -23.47171 8.858455 -5.254241 -22.63394 9.220788 91.77832 15.06057 -11.29349 -0 0 14.65265 -17.74315 3.623695 12.76941 2.855706 -16.25861 -3.219612 -94.70358 26.24905 24.87519 0 0 -9.234307 -0.8752455 9.710507 15.44296
-1306.976 102.7806 2582.907 -8.317363 -4.185524 -62.85043 6.3247 -4.521588 2.145106 -0 14.96142 -0 -8.432691 -3.290706 -4.706549 -2.350554 0.1487064 -6.041654 -0 58.68032 -0 -2.794121 -5.148756 15.87602 -1.098283 -0.8233175 5.468282 0.8158029 9.094907 -3.790872 2.806341 23.98322 3.282534 -1.481913 -24.40965 8.869049 -5.861116 -24.10756 9.222139 91.92278 14.03899 -10.82145 -0 0 16.30461 -17.88654 3.799163 13.44874 2.530659 -16.03074 -3.220268 -95.75843 25.7181 27.4144 0 0 -9.096288 -1.383359 9.044563 16.29505
-1312.113 103.699 2585.408 -8.802485 -4.611812 -63.91214 6.096161 0.2522178 2.065758 -0 13.95917 -0 -8.400141 -5.570085 -4.10556 -1.626616 -5.988366 -5.51681 -0 57.02954 -0 -2.902701 -5.1529 16.81409 -0.8553725 -1.298719 6.022534 0.8800811 9.579472 -3.809951 2.75131 23.28549 3.020871 -1.934396 -25.35545 8.856311 -6.50778 -25.80574 9.216368 91.93221 12.9544 -10.11423 -0 0 18.42397 -18.09979 4.179723 14.27282 2.152044 -15.68431 -3.209717 -96.90374 24.98741 30.33442 0 0 -8.949073 -1.998575 8.237923 17.25963
-1317.027 104.1532 2587.849 -8.769345 -4.623588 -64.83208 5.936286 4.430883 1.943769 -0 12.68057 -0 -8.032633 -7.829954 -3.405775 -0.5393542 -11.82756 -4.690945 -0 51.20399 -0 -2.858513 -5.464355 17.5694 -0.6125661 -1.787094 6.639346 0.9326038 10.05514 -3.794284 2.702069 22.50203 2.713561 -2.42017 -26.18788 8.805775 -7.124346 -27.58735 9.204851 91.74529 11.93597 -9.161271 -0 0 20.89656 -18.39671 4.766294 15.19487 1.749063 -15.22217 -3.183281 -98.00725 24.07618 33.38055 0 0 -8.799376 -2.664252 7.353611 18.22804
-1321.877 104.0727 2590.348 -8.21937 -4.189792 -65.60466 5.758422 8.003298 2.017299 -0 11.55474 -0 -7.179411 -10.22643 -2.736631 0.7666045 -16.90966 -3.734991 -0 42.73981 -0 -2.805594 -5.696987 18.1357 -0.4063289 -2.234797 7.276196 0.9574505 10.45911 -3.721241 2.658557 21.70763 2.386732 -2.882427 -26.7926 8.704109 -7.634984 -29.29404 9.193773 91.30792 11.10392 -7.961574 -0 0 23.56526 -18.79403 5.496982 16.15764 1.359547 -14.65232 -3.133245 -98.96699 23.04314 36.29257 0 0 -8.588736 -3.325165 6.471929 19.08945
-1326.807 103.5006 2593.01 -7.376205 -3.519564 -66.29391 5.391845 11.12392 2.304614 -0 10.96345 -0 -5.932817 -12.59067 -2.145876 1.930231 -20.83102 -2.982157 -0 33.6182 -0 -2.896985 -5.750702 18.5618 -0.2699782 -2.593722 7.888332 0.9378639 10.73961 -3.572382 2.619907 20.98566 2.072913 -3.260123 -27.09399 8.546665 -7.975824 -30.77852 9.192271 90.60029 10.54202 -6.54595 -0 0 26.24055 -19.2989 6.264638 17.09826 1.023492 -13.99749 -3.052654 -99.7281 21.97719 38.84572 0 0 -8.228506 -3.932946 5.678947 19.75353
-1331.921 102.5762 2595.907 -6.56075 -2.907548 -66.96873 4.74733 13.91834 2.655235 -0 11.35858 -0 -4.588625 -14.39161 -1.632141 2.55902 -23.3373 -2.746987 -0 25.63052 -0 -3.176222 -5.708399 18.89422 -0.2236368 -2.831979 8.433651 0.8624345 10.86971 -3.343044 2.586477 20.40955 1.804606 -3.502993 -27.07045 8.341456 -8.107866 -31.92703 9.209094 89.65123 10.28562 -4.988048 -0 0 28.72167 -19.89878 6.95405 17.95356 0.7752389 -13.29886 -2.939711 -100.2815 20.97837 40.87667 0 0 -7.645546 -4.448973 5.052735 20.1665
-1337.283 101.5154 2599.068 -6.031236 -2.581031 -67.65107 3.868802 16.33759 2.877216 -0 13.23808 -0 -3.498488 -14.94257 -1.206339 2.423441 -24.3621 -3.156443 -0 19.96463 -0 -3.525244 -5.69598 19.15076 -0.2690743 -2.93724 8.877108 0.7288594 10.85193 -3.045578 2.560891 20.02942 1.608238 -3.58262 -26.75069 8.107947 -8.022066 -32.67031 9.249233 88.53546 10.32541 -3.399613 -0 0 30.8223 -20.55808 7.475865 18.66529 0.6371648 -12.61083 -2.800257 -100.65 20.13886 42.2914 0 0 -6.814666 -4.846096 4.650227 20.31652
-1342.914 100.5796 2602.479 -5.896973 -2.62804 -68.298 2.89304 18.12562 2.846268 -0 16.99981 -0 -2.92408 -13.70468 -0.9062082 1.5427 -23.98489 -4.10299 -0 17.05054 -0 -3.707873 -5.805233 19.33016 -0.3910291 -2.913585 9.19343 0.5443244 10.71306 -2.705923 2.547553 19.86732 1.500253 -3.496157 -26.19733 7.872125 -7.737012 -32.98312 9.312123 87.35845 10.61986 -1.913537 -0 0 32.39283 -21.22243 7.782826 19.18496 0.6169272 -11.99027 -2.647381 -100.8705 19.52986 43.05882 0 0 -5.766953 -5.109859 4.498472 20.22857
-1348.775 100.0221 2606.078 -6.115831 -3.003121 -68.81445 1.974575 18.88775 2.554335 -0 22.72795 -0 -2.94075 -10.56041 -0.7614088 0.1388694 -22.36899 -5.327005 -0 16.5992 -0 -3.482253 -6.08259 19.43184 -0.5632653 -2.775469 9.367901 0.3233866 10.49335 -2.356622 2.551176 19.91983 1.485734 -3.263151 -25.48671 7.66044 -7.291639 -32.87679 9.392004 86.23623 11.10909 -0.6618534 -0 0 33.33477 -21.82822 7.868308 19.47826 0.7082571 -11.48555 -2.498807 -100.9787 19.19538 43.19685 0 0 -4.578771 -5.238827 4.592549 19.95222
-1354.761 100.0188 2609.765 -6.544521 -3.573243 -69.0883 1.220494 18.22643 2.101674 -0 29.99392 -0 -3.423832 -5.964954 -0.7760027 -1.4752 -19.71704 -6.553653 -0 17.77332 -0 -2.736859 -6.551475 19.46198 -0.7562427 -2.542315 9.395806 0.08513277 10.23483 -2.030185 2.575078 20.16414 1.559069 -2.918516 -24.69241 7.49463 -6.736304 -32.3895 9.479757 85.27666 11.72661 0.2443292 -0 0 33.60627 -22.31368 7.755358 19.52801 0.8939783 -11.13005 -2.373307 -100.9981 19.15139 42.75632 0 0 -3.353893 -5.242973 4.899835 19.54729
-1360.715 100.6034 2613.418 -7.013388 -4.171565 -69.03672 0.6684311 15.89948 1.64078 -0 37.79083 -0 -4.125807 -0.8883386 -0.9583341 -2.998975 -16.24548 -7.598056 -0 19.46657 -0 -1.582618 -7.235899 19.42226 -0.9438133 -2.235469 9.281191 -0.1491876 9.972081 -1.755007 2.619876 20.56465 1.706048 -2.504787 -23.8761 7.388556 -6.124886 -31.57773 9.564964 84.56539 12.40847 0.7285921 -0 0 33.21957 -22.62846 7.484264 19.33503 1.150011 -10.94115 -2.287113 -100.9341 19.38837 41.8064 0 0 -2.208021 -5.139568 5.368914 19.07079
